<svg width="274" height="108" viewBox="0 0 274 108" fill="none" xmlns="http://www.w3.org/2000/svg">
<path d="M115.979 53.6387C116.26 57.2776 113.7 60.5082 110.263 60.853C107.631 61.1168 105.251 59.612 104.151 57.2617L101.032 57.5367L98.677 58.6728C98.1383 58.9319 97.776 59.4467 97.6934 60.0379C97.4709 61.6317 97.0673 63.1667 96.5064 64.6255C96.3157 65.1197 96.349 65.6711 96.6081 66.132L97.4471 67.632L99.7799 69.1973C101.01 68.7269 102.442 68.8397 103.619 69.6295C105.615 70.9691 106.093 73.7261 104.609 75.6664C103.331 77.3381 100.956 77.7973 99.1474 76.7231C97.9953 76.0398 97.2993 74.9052 97.1293 73.6928L94.5439 71.9591L92.9166 71.7604C92.3573 71.6921 91.8011 71.8844 91.3943 72.2737C90.0214 73.5815 88.4704 74.705 86.7844 75.6044C86.2171 75.9063 85.8532 76.4864 85.8135 77.1267L85.6069 80.4225L86.6303 84.4826C88.3719 84.9688 89.8116 86.3497 90.2851 88.228C91.0002 91.0677 89.2364 93.9487 86.3601 94.5891C83.7652 95.1675 81.1035 93.6547 80.2787 91.1265C79.6368 89.1529 80.2263 87.1125 81.5834 85.7793L80.5552 81.6953L78.9678 79.1433C78.5419 78.4584 77.7887 78.0532 76.9814 78.0548C76.9766 78.0548 76.9735 78.0548 76.9687 78.0548C75.5783 78.0548 74.218 77.9165 72.9023 77.6575C72.1188 77.5018 71.31 77.7497 70.7602 78.3297L68.6626 80.5433L66.314 85.4154C66.8638 86.5325 66.913 87.8816 66.3314 89.0909C65.2858 91.2584 62.6194 92.1197 60.4884 90.9215C58.6642 89.8934 57.8744 87.6242 58.6689 85.6855C59.2108 84.3634 60.3343 83.4799 61.6055 83.1843L63.9685 78.2804L64.4325 74.9894C64.5167 74.3824 64.2847 73.7706 63.808 73.3861C61.9281 71.8606 60.3168 70.0188 59.0567 67.9403C58.7436 67.4239 58.1811 67.1108 57.5772 67.106L54.291 67.0743L50.6934 68.2057C50.4407 70.4431 48.9088 72.431 46.6237 73.1493C43.5537 74.1155 40.2833 72.4279 39.287 69.3768C38.2906 66.3274 39.9735 62.9919 43.0197 61.9845C45.1523 61.2789 47.3929 61.8653 48.9088 63.3066L52.7274 62.1052L55.5162 60.1173C55.931 59.8233 56.1518 59.3307 56.1105 58.8254C56.0644 58.2644 56.0406 57.6987 56.0406 57.1267C56.0406 54.0184 56.7239 51.0675 57.9443 48.4138C58.1223 48.0245 58.1175 47.5763 57.93 47.1918L57.1037 45.5026L54.8615 43.8102C53.6061 44.2123 52.1839 44.02 51.0525 43.1667C49.1329 41.7174 48.8087 38.9381 50.3978 37.0837C51.766 35.4867 54.1639 35.1593 55.9103 36.332C57.0226 37.0789 57.6551 38.2485 57.7568 39.4689L60.2421 41.344L62.7465 41.7905C64.5692 40.0982 66.6938 38.7268 69.0281 37.7654L69.6161 34.1932L68.874 30.5033C66.6779 29.9376 64.8949 28.2548 64.415 26.011C63.7381 22.8408 65.9167 19.7532 69.2824 19.116C72.6464 18.4788 75.9231 20.5303 76.6 23.7005C77.107 26.073 76.0153 28.3978 74.0226 29.685L74.7233 33.165L76.4443 35.9109C76.5571 36.0905 76.7542 36.1986 76.9655 36.1986H76.9687C80.9096 36.1986 84.5994 37.295 87.7506 39.1987C87.9238 39.302 88.1367 39.3163 88.3195 39.2305L91.0145 37.9815L94.1609 34.5777C93.9718 33.3573 94.3198 32.0638 95.224 31.0865C96.8575 29.3211 99.6543 29.2766 101.342 31.042C102.821 32.5914 102.879 35.0624 101.474 36.6801C100.565 37.7273 99.2602 38.2103 97.9858 38.115L94.8394 41.5188L93.8176 44.2679C93.7461 44.4586 93.7779 44.6715 93.8971 44.8368C95.1382 46.5403 96.1282 48.4376 96.8115 50.4748C97.0006 51.0342 97.4455 51.4696 98.0144 51.6301L100.573 52.3467L103.897 52.0528C104.712 49.7025 106.748 47.9243 109.248 47.6733C112.685 47.3284 115.699 49.9997 115.979 53.6387V53.6387Z" fill="#EB5569"/>
<path d="M76.9687 72.6233C85.5273 72.6233 92.4654 65.6852 92.4654 57.1267C92.4654 48.5681 85.5273 41.63 76.9687 41.63C68.4101 41.63 61.472 48.5681 61.472 57.1267C61.472 65.6852 68.4101 72.6233 76.9687 72.6233Z" fill="#F58A97"/>
<path d="M66.1954 57.1267C66.1954 49.3709 71.8926 42.9461 79.3304 41.8088C78.5603 41.691 77.7717 41.63 76.9687 41.63C68.4099 41.63 61.472 48.5679 61.472 57.1267C61.472 65.6854 68.4099 72.6233 76.9687 72.6233C77.7717 72.6233 78.5603 72.5623 79.3304 72.4445C71.8927 71.3071 66.1954 64.8823 66.1954 57.1267Z" fill="#F07281"/>
<path d="M50.8947 28.9538C53.3319 28.9538 55.3077 26.9781 55.3077 24.5408C55.3077 22.1036 53.3319 20.1278 50.8947 20.1278C48.4575 20.1278 46.4817 22.1036 46.4817 24.5408C46.4817 26.9781 48.4575 28.9538 50.8947 28.9538Z" fill="#EB5569"/>
<path d="M49.6884 85.626C51.2982 85.626 52.6032 84.321 52.6032 82.7112C52.6032 81.1014 51.2982 79.7964 49.6884 79.7964C48.0786 79.7964 46.7736 81.1014 46.7736 82.7112C46.7736 84.321 48.0786 85.626 49.6884 85.626Z" fill="#EB5569"/>
<path d="M103.207 91.7928C105.578 91.7928 107.5 89.8706 107.5 87.4994C107.5 85.1283 105.578 83.2061 103.207 83.2061C100.836 83.2061 98.9133 85.1283 98.9133 87.4994C98.9133 89.8706 100.836 91.7928 103.207 91.7928Z" fill="#EB5569"/>
<path d="M72.2119 56.8558C74.4226 56.8558 76.2147 55.0637 76.2147 52.8531C76.2147 50.6424 74.4226 48.8503 72.2119 48.8503C70.0013 48.8503 68.2092 50.6424 68.2092 52.8531C68.2092 55.0637 70.0013 56.8558 72.2119 56.8558Z" fill="#EB5569"/>
<path d="M75.425 68.0102C76.9297 68.0102 78.1495 66.7904 78.1495 65.2857C78.1495 63.7811 76.9297 62.5613 75.425 62.5613C73.9203 62.5613 72.7006 63.7811 72.7006 65.2857C72.7006 66.7904 73.9203 68.0102 75.425 68.0102Z" fill="#EB5569"/>
<path d="M83.9799 59.4144C85.2434 59.4144 86.2677 58.3902 86.2677 57.1267C86.2677 55.8631 85.2434 54.8389 83.9799 54.8389C82.7164 54.8389 81.6921 55.8631 81.6921 57.1267C81.6921 58.3902 82.7164 59.4144 83.9799 59.4144Z" fill="#EB5569"/>
<path d="M20.088 87.792C14.04 87.792 9.744 86.112 7.2 82.752C4.704 79.344 3.456 74.544 3.456 68.352V47.544C3.456 41.16 4.704 36.312 7.2 33C9.696 29.688 13.992 28.032 20.088 28.032C25.8 28.032 29.856 29.472 32.256 32.352C34.656 35.232 35.856 39.384 35.856 44.808V49.704H25.632V44.664C25.632 42.6 25.536 40.992 25.344 39.84C25.152 38.64 24.648 37.68 23.832 36.96C23.064 36.192 21.84 35.808 20.16 35.808C18.432 35.808 17.136 36.216 16.272 37.032C15.408 37.8 14.832 38.856 14.544 40.2C14.304 41.496 14.184 43.2 14.184 45.312V70.584C14.184 73.896 14.616 76.296 15.48 77.784C16.344 79.224 17.904 79.944 20.16 79.944C21.792 79.944 22.992 79.56 23.76 78.792C24.576 78.024 25.08 77.016 25.272 75.768C25.512 74.472 25.632 72.768 25.632 70.656V65.4H35.856V70.08C35.856 75.696 34.68 80.064 32.328 83.184C29.976 86.256 25.896 87.792 20.088 87.792Z" fill="#50658E"/>
<path d="M114.656 28.68H124.016L131.72 69.936L138.992 28.68H148.568L136.832 87H126.392L114.656 28.68ZM154.805 28.68H165.317V87H154.805V28.68ZM174.345 28.68H188.097C192.801 28.68 196.497 29.328 199.185 30.624C201.873 31.872 203.769 33.816 204.873 36.456C206.025 39.048 206.601 42.504 206.601 46.824V68.064C206.601 72.48 206.025 76.056 204.873 78.792C203.769 81.528 201.897 83.592 199.257 84.984C196.617 86.328 193.041 87 188.529 87H174.345V28.68ZM188.241 79.584C190.593 79.584 192.297 79.176 193.353 78.36C194.409 77.544 195.081 76.416 195.369 74.976C195.657 73.488 195.801 71.304 195.801 68.424V46.104C195.801 43.512 195.633 41.544 195.297 40.2C194.961 38.856 194.241 37.872 193.137 37.248C192.081 36.576 190.401 36.24 188.097 36.24H184.929V79.584H188.241Z" fill="#50658E"/>
<path d="M218.872 38.696C218.392 39.032 216.64 39.584 213.616 40.352C211.168 41.072 209.92 41.456 209.872 41.504V34.088C211.792 33.416 213.88 32.504 216.136 31.352C218.44 30.152 220.12 28.928 221.176 27.68H228.88V86H218.872V38.696ZM254.411 86.792C249.419 86.792 245.747 85.568 243.395 83.12C241.091 80.624 239.891 76.928 239.795 72.032V71.168H249.371C249.371 73.952 249.707 75.944 250.379 77.144C251.099 78.344 252.467 78.944 254.483 78.944C256.355 78.944 257.651 78.056 258.371 76.28C259.139 74.456 259.523 71.336 259.523 66.92V60.008C258.851 61.16 257.819 62.048 256.427 62.672C255.035 63.296 253.379 63.608 251.459 63.608C243.299 63.608 239.219 57.896 239.219 46.472C239.219 40.376 240.419 35.624 242.819 32.216C245.267 28.76 249.131 27.032 254.411 27.032C259.595 27.032 263.435 28.736 265.931 32.144C268.427 35.504 269.675 40.064 269.675 45.824V66.488C269.675 72.824 268.523 77.792 266.219 81.392C263.963 84.992 260.027 86.792 254.411 86.792ZM254.483 56.048C256.643 56.048 258.323 54.992 259.523 52.88V43.808C259.523 40.976 259.139 38.744 258.371 37.112C257.651 35.48 256.331 34.664 254.411 34.664C252.491 34.664 251.147 35.552 250.379 37.328C249.659 39.056 249.299 41.6 249.299 44.96C249.299 47.6 249.371 49.664 249.515 51.152C249.707 52.592 250.163 53.768 250.883 54.68C251.651 55.592 252.851 56.048 254.483 56.048Z" fill="#B2BEDB"/>
</svg>
