<svg xmlns="http://www.w3.org/2000/svg" width="77" height="76" fill="none" viewBox="0 0 77 76"><path fill="#EB5569" d="M76.9789 34.6387C77.2601 38.2776 74.7001 41.5082 71.263 41.853C68.6315 42.1168 66.251 40.612 65.1514 38.2617L62.032 38.5367L59.677 39.6728C59.1383 39.9319 58.776 40.4467 58.6934 41.0378C58.4709 42.6317 58.0673 44.1667 57.5064 45.6255C57.3157 46.1197 57.349 46.6711 57.6081 47.132L58.4471 48.632L60.7799 50.1973C62.0098 49.7269 63.4416 49.8397 64.6191 50.6295C66.6149 51.9691 67.0932 54.7261 65.6091 56.6664C64.3314 58.3381 61.9558 58.7973 60.1474 57.7231C58.9953 57.0398 58.2993 55.9052 58.1293 54.6928L55.5439 52.9591L53.9166 52.7604C53.3573 52.6921 52.8011 52.8844 52.3943 53.2737C51.0214 54.5815 49.4704 55.705 47.7844 56.6044C47.2171 56.9063 46.8532 57.4864 46.8135 58.1267L46.6069 61.4225L47.6303 65.4826C49.3719 65.9688 50.8116 67.3497 51.2851 69.228C52.0002 72.0677 50.2364 74.9487 47.3601 75.5891C44.7652 76.1675 42.1035 74.6547 41.2787 72.1265C40.6368 70.1529 41.2263 68.1125 42.5834 66.7793L41.5552 62.6953L39.9678 60.1433C39.5419 59.4584 38.7887 59.0532 37.9814 59.0548C37.9766 59.0548 37.9735 59.0548 37.9687 59.0548C36.5783 59.0548 35.218 58.9165 33.9023 58.6575C33.1188 58.5018 32.31 58.7497 31.7602 59.3297L29.6626 61.5433L27.314 66.4154C27.8638 67.5325 27.913 68.8816 27.3314 70.0909C26.2858 72.2584 23.6194 73.1197 21.4884 71.9215C19.6642 70.8934 18.8744 68.6242 19.6689 66.6855C20.2108 65.3634 21.3343 64.4799 22.6055 64.1843L24.9685 59.2804L25.4325 55.9894C25.5167 55.3824 25.2847 54.7706 24.808 54.3861C22.9281 52.8606 21.3168 51.0188 20.0567 48.9403C19.7436 48.4239 19.1811 48.1108 18.5772 48.106L15.291 48.0743L11.6934 49.2057C11.4407 51.4431 9.90884 53.431 7.62375 54.1493C4.55366 55.1155 1.28334 53.4279 0.286994 50.3768C-0.709355 47.3274 0.973474 43.9919 4.01973 42.9845C6.15227 42.2789 8.39286 42.8653 9.90884 44.3066L13.7274 43.1052L16.5162 41.1173C16.931 40.8233 17.1518 40.3307 17.1105 39.8254C17.0644 39.2644 17.0406 38.6987 17.0406 38.1267C17.0406 35.0184 17.7239 32.0675 18.9443 29.4138C19.1223 29.0245 19.1175 28.5763 18.93 28.1918L18.1037 26.5026L15.8615 24.8102C14.6061 25.2123 13.1839 25.02 12.0525 24.1667C10.1329 22.7174 9.80872 19.9381 11.3978 18.0837C12.766 16.4867 15.1639 16.1593 16.9103 17.332C18.0226 18.0789 18.6551 19.2485 18.7568 20.4689L21.2421 22.344L23.7465 22.7905C25.5692 21.0982 27.6938 19.7268 30.0281 18.7654L30.6161 15.1932L29.874 11.5033C27.6779 10.9376 25.8949 9.25479 25.415 7.01101C24.7381 3.84081 26.9167 0.753241 30.2824 0.116023C33.6464 -0.521196 36.9231 1.5303 37.6 4.7005C38.107 7.07299 37.0153 9.3978 35.0226 10.685L35.7233 14.165L37.4443 16.9109C37.5571 17.0905 37.7542 17.1986 37.9655 17.1986H37.9687C41.9096 17.1986 45.5994 18.295 48.7506 20.1987C48.9238 20.302 49.1367 20.3163 49.3195 20.2305L52.0145 18.9815L55.1609 15.5777C54.9718 14.3573 55.3198 13.0638 56.224 12.0865C57.8575 10.3211 60.6543 10.2766 62.3419 12.042C63.8213 13.5914 63.8785 16.0624 62.4738 17.6801C61.5649 18.7273 60.2602 19.2103 58.9858 19.115L55.8394 22.5188L54.8176 25.2679C54.7461 25.4586 54.7779 25.6715 54.8971 25.8368C56.1382 27.5403 57.1282 29.4376 57.8115 31.4748C58.0006 32.0342 58.4455 32.4696 59.0144 32.6301L61.5728 33.3467L64.8971 33.0528C65.7123 30.7025 67.7479 28.9243 70.2476 28.6733C73.6847 28.3284 76.6992 30.9997 76.9789 34.6387Z"/><path fill="#F58A97" d="M37.9687 53.6233C46.5273 53.6233 53.4653 46.6852 53.4653 38.1267C53.4653 29.5681 46.5273 22.63 37.9687 22.63C29.4101 22.63 22.472 29.5681 22.472 38.1267C22.472 46.6852 29.4101 53.6233 37.9687 53.6233Z"/><path fill="#F07281" d="M27.1954 38.1267C27.1954 30.3709 32.8926 23.9461 40.3304 22.8088C39.5603 22.691 38.7717 22.63 37.9687 22.63C29.4099 22.63 22.472 29.5679 22.472 38.1267C22.472 46.6854 29.4099 53.6233 37.9687 53.6233C38.7717 53.6233 39.5603 53.5623 40.3304 53.4445C32.8927 52.3071 27.1954 45.8823 27.1954 38.1267Z"/><path fill="#EB5569" d="M11.8947 9.95384C14.3319 9.95384 16.3077 7.97806 16.3077 5.54082C16.3077 3.10358 14.3319 1.12781 11.8947 1.12781C9.45743 1.12781 7.48166 3.10358 7.48166 5.54082C7.48166 7.97806 9.45743 9.95384 11.8947 9.95384Z"/><path fill="#EB5569" d="M10.6884 66.626C12.2982 66.626 13.6032 65.321 13.6032 63.7112C13.6032 62.1014 12.2982 60.7964 10.6884 60.7964C9.07858 60.7964 7.77356 62.1014 7.77356 63.7112C7.77356 65.321 9.07858 66.626 10.6884 66.626Z"/><path fill="#EB5569" d="M64.2067 72.7928C66.5778 72.7928 68.5 70.8706 68.5 68.4994C68.5 66.1283 66.5778 64.2061 64.2067 64.2061C61.8355 64.2061 59.9133 66.1283 59.9133 68.4994C59.9133 70.8706 61.8355 72.7928 64.2067 72.7928Z"/><path fill="#EB5569" d="M33.2119 37.8558C35.4226 37.8558 37.2146 36.0637 37.2146 33.8531C37.2146 31.6424 35.4226 29.8503 33.2119 29.8503C31.0013 29.8503 29.2092 31.6424 29.2092 33.8531C29.2092 36.0637 31.0013 37.8558 33.2119 37.8558Z"/><path fill="#EB5569" d="M36.4251 49.0102C37.9297 49.0102 39.1495 47.7904 39.1495 46.2857C39.1495 44.7811 37.9297 43.5613 36.4251 43.5613C34.9204 43.5613 33.7006 44.7811 33.7006 46.2857C33.7006 47.7904 34.9204 49.0102 36.4251 49.0102Z"/><path fill="#EB5569" d="M44.98 40.4144C46.2435 40.4144 47.2678 39.3902 47.2678 38.1267C47.2678 36.8631 46.2435 35.8389 44.98 35.8389C43.7164 35.8389 42.6922 36.8631 42.6922 38.1267C42.6922 39.3902 43.7164 40.4144 44.98 40.4144Z"/></svg>