<svg xmlns="http://www.w3.org/2000/svg" width="100" height="98" fill="none" viewBox="0 0 100 98"><path fill="#EB5569" d="M99.6397 44.8355C100.004 49.5457 96.6902 53.7273 92.2412 54.1736C88.835 54.5151 85.7538 52.5672 84.3305 49.5251L80.2929 49.881L77.2446 51.3516C76.5473 51.6869 76.0784 52.3533 75.9714 53.1185C75.6834 55.1815 75.161 57.1684 74.4349 59.0566C74.1881 59.6963 74.2313 60.41 74.5666 61.0065L75.6526 62.9482L78.6721 64.9742C80.2641 64.3654 82.1173 64.5114 83.6414 65.5337C86.2249 67.2676 86.844 70.8363 84.9229 73.3477C83.2691 75.5115 80.1941 76.1059 77.8534 74.7155C76.3622 73.8311 75.4613 72.3624 75.2412 70.7931L71.8947 68.549L69.7885 68.2919C69.0645 68.2035 68.3446 68.4524 67.818 68.9563C66.0409 70.6491 64.0334 72.1033 61.8511 73.2675C61.1168 73.6583 60.6457 74.409 60.5943 75.2379L60.3269 79.5039L61.6515 84.7592C63.9059 85.3885 65.7694 87.176 66.3823 89.6072C67.3079 93.2828 65.0248 97.0119 61.3019 97.8408C57.943 98.5895 54.4978 96.6314 53.4303 93.3589C52.5993 90.8043 53.3624 88.1633 55.1189 86.4376L53.7882 81.1514L51.7334 77.8481C51.1821 76.9616 50.2072 76.4371 49.1623 76.4392C49.1561 76.4392 49.152 76.4392 49.1458 76.4392C47.3461 76.4392 45.5854 76.2602 43.8823 75.9249C42.8683 75.7234 41.8213 76.0442 41.1097 76.795L38.3946 79.6602L35.3546 85.9665C36.0662 87.4125 36.13 89.1588 35.3772 90.7241C34.0238 93.5296 30.5724 94.6444 27.8141 93.0936C25.4528 91.7628 24.4306 88.8256 25.459 86.3162C26.1604 84.6049 27.6146 83.4613 29.2601 83.0787L32.3186 76.7312L32.9193 72.4715C33.0283 71.6857 32.728 70.8939 32.1109 70.3961C29.6776 68.4215 27.592 66.0376 25.9609 63.3472C25.5557 62.6787 24.8276 62.2735 24.0459 62.2674L19.7924 62.2262L15.1356 63.6907C14.8086 66.5868 12.8258 69.1599 9.86801 70.0896C5.89415 71.3402 1.66113 69.1558 0.371478 65.2066C-0.918173 61.2595 1.26004 56.9422 5.20304 55.6381C7.96335 54.7249 10.8635 55.4838 12.8258 57.3494L17.7684 55.7944L21.3782 53.2213C21.915 52.8408 22.2009 52.2032 22.1475 51.5491C22.0878 50.823 22.057 50.0908 22.057 49.3503C22.057 45.3271 22.9414 41.5075 24.5211 38.0725C24.7515 37.5686 24.7453 36.9886 24.5026 36.4908L23.433 34.3044L20.5308 32.1138C18.9059 32.6342 17.065 32.3853 15.6005 31.2808C13.1158 29.4049 12.6962 25.8075 14.7531 23.4071C16.524 21.34 19.6278 20.9162 21.8883 22.4342C23.3281 23.4009 24.1467 24.9148 24.2784 26.4945L27.4953 28.9215L30.7369 29.4995C33.0961 27.309 35.8462 25.5339 38.8677 24.2895L39.6287 19.6657L38.6682 14.8896C35.8256 14.1574 33.5178 11.9792 32.8966 9.0749C32.0204 4.97146 34.8404 0.974979 39.1968 0.150177C43.5512 -0.674624 47.7924 1.98078 48.6686 6.08422C49.3248 9.15512 47.9117 12.1643 45.3324 13.8304L46.2395 18.3349L48.4671 21.8891C48.6131 22.1216 48.8681 22.2614 49.1417 22.2614H49.1458C54.2468 22.2614 59.0229 23.6807 63.1016 26.1448C63.3258 26.2785 63.6014 26.297 63.838 26.1859L67.3264 24.5692L71.399 20.1634C71.1542 18.5838 71.6047 16.9095 72.775 15.6445C74.8895 13.3593 78.5096 13.3017 80.694 15.5869C82.6089 17.5924 82.6829 20.7908 80.8647 22.8847C79.6881 24.2401 77.9995 24.8654 76.3499 24.742L72.2773 29.1478L70.9547 32.7062C70.8622 32.953 70.9033 33.2286 71.0576 33.4425C72.664 35.6475 73.9454 38.1034 74.8298 40.7403C75.0746 41.4643 75.6505 42.0279 76.3869 42.2356L79.6984 43.1633L84.0014 42.7827C85.0566 39.7406 87.6914 37.439 90.9268 37.114C95.3758 36.6677 99.2777 40.1253 99.6397 44.8355Z"/><path fill="#F58A97" d="M49.1458 69.4088C60.2238 69.4088 69.2043 60.4283 69.2043 49.3503C69.2043 38.2723 60.2238 29.2918 49.1458 29.2918C38.0678 29.2918 29.0873 38.2723 29.0873 49.3503C29.0873 60.4283 38.0678 69.4088 49.1458 69.4088Z"/><path fill="#F07281" d="M35.2011 49.3503C35.2011 39.3114 42.5754 30.9953 52.2027 29.5232C51.206 29.3708 50.1852 29.2918 49.1458 29.2918C38.0676 29.2918 29.0873 38.2721 29.0873 49.3503C29.0873 60.4286 38.0676 69.4088 49.1458 69.4088C50.1852 69.4088 51.206 69.3299 52.2027 69.1774C42.5756 67.7051 35.2011 59.389 35.2011 49.3503Z"/><path fill="#EB5569" d="M15.3962 12.884C18.5509 12.884 21.1083 10.3266 21.1083 7.17188C21.1083 4.01717 18.5509 1.45978 15.3962 1.45978C12.2415 1.45978 9.68413 4.01717 9.68413 7.17188C9.68413 10.3266 12.2415 12.884 15.3962 12.884Z"/><path fill="#EB5569" d="M13.8348 86.2393C15.9185 86.2393 17.6077 84.5501 17.6077 82.4664C17.6077 80.3827 15.9185 78.6935 13.8348 78.6935C11.7511 78.6935 10.0619 80.3827 10.0619 82.4664C10.0619 84.5501 11.7511 86.2393 13.8348 86.2393Z"/><path fill="#EB5569" d="M83.1077 94.2213C86.1768 94.2213 88.6649 91.7333 88.6649 88.6641C88.6649 85.5949 86.1768 83.1069 83.1077 83.1069C80.0385 83.1069 77.5504 85.5949 77.5504 88.6641C77.5504 91.7333 80.0385 94.2213 83.1077 94.2213Z"/><path fill="#EB5569" d="M42.9888 48.9996C45.8502 48.9996 48.1698 46.6799 48.1698 43.8185C48.1698 40.9571 45.8502 38.6375 42.9888 38.6375C40.1274 38.6375 37.8077 40.9571 37.8077 43.8185C37.8077 46.6799 40.1274 48.9996 42.9888 48.9996Z"/><path fill="#EB5569" d="M47.1478 63.4377C49.0954 63.4377 50.6743 61.8589 50.6743 59.9113C50.6743 57.9636 49.0954 56.3848 47.1478 56.3848C45.2002 56.3848 43.6213 57.9636 43.6213 59.9113C43.6213 61.8589 45.2002 63.4377 47.1478 63.4377Z"/><path fill="#EB5569" d="M58.2211 52.3116C59.8565 52.3116 61.1823 50.9858 61.1823 49.3503C61.1823 47.7148 59.8565 46.389 58.2211 46.389C56.5856 46.389 55.2598 47.7148 55.2598 49.3503C55.2598 50.9858 56.5856 52.3116 58.2211 52.3116Z"/></svg>